<svg width="32" height="32" viewBox="0 0 32 32" fill="none" xmlns="http://www.w3.org/2000/svg">
<path d="M3 26.5H29C29.1326 26.5 29.2598 26.5527 29.3536 26.6464C29.4473 26.7402 29.5 26.8674 29.5 27V29C29.5 29.1326 29.4473 29.2598 29.3536 29.3536C29.2598 29.4473 29.1326 29.5 29 29.5H3C2.86739 29.5 2.74021 29.4473 2.64645 29.3536C2.55268 29.2598 2.5 29.1326 2.5 29V27C2.5 26.8674 2.55268 26.7402 2.64645 26.6464C2.74021 26.5527 2.86739 26.5 3 26.5ZM3 18.5H29C29.1326 18.5 29.2598 18.5527 29.3536 18.6464C29.4473 18.7402 29.5 18.8674 29.5 19V21C29.5 21.1326 29.4473 21.2598 29.3536 21.3536C29.2598 21.4473 29.1326 21.5 29 21.5H3C2.86739 21.5 2.74021 21.4473 2.64645 21.3536C2.55268 21.2598 2.5 21.1326 2.5 21V19C2.5 18.8674 2.55268 18.7402 2.64645 18.6464C2.74021 18.5527 2.86739 18.5 3 18.5ZM3 10.5H29C29.1326 10.5 29.2598 10.5527 29.3536 10.6464C29.4473 10.7402 29.5 10.8674 29.5 11V13C29.5 13.1326 29.4473 13.2598 29.3536 13.3536C29.2598 13.4473 29.1326 13.5 29 13.5H3C2.86739 13.5 2.74022 13.4473 2.64645 13.3536C2.55268 13.2598 2.5 13.1326 2.5 13V11C2.5 10.8674 2.55268 10.7402 2.64645 10.6464C2.74022 10.5527 2.86739 10.5 3 10.5ZM3 2.5H29C29.1326 2.5 29.2598 2.55268 29.3536 2.64645C29.4473 2.74021 29.5 2.86739 29.5 3V5C29.5 5.13261 29.4473 5.25979 29.3536 5.35355C29.2598 5.44732 29.1326 5.5 29 5.5H3C2.86739 5.5 2.74021 5.44732 2.64645 5.35355C2.55268 5.25978 2.5 5.13261 2.5 5V3C2.5 2.86739 2.55268 2.74021 2.64645 2.64645C2.74021 2.55268 2.86739 2.5 3 2.5Z" fill="url(#paint0_linear_32_295)" stroke="black"/>
<defs>
<linearGradient id="paint0_linear_32_295" x1="16" y1="2" x2="16" y2="80.2353" gradientUnits="userSpaceOnUse">
<stop stop-color="#C72B2B"/>
<stop offset="1" stop-color="#F40808" stop-opacity="0.33"/>
</linearGradient>
</defs>
</svg>
